<?xml version="1.0" encoding="UTF-8" standalone="no"?>
<!-- Created with Inkscape (http://www.inkscape.org/) -->

<svg
   width="21.552729mm"
   height="17.731321mm"
   viewBox="0 0 21.552728 17.731321"
   version="1.1"
   id="svg1"
   inkscape:version="1.4.2 (f4327f4, 2025-05-13)"
   sodipodi:docname="yarnBackgroundTexture.svg"
   xmlns:inkscape="http://www.inkscape.org/namespaces/inkscape"
   xmlns:sodipodi="http://sodipodi.sourceforge.net/DTD/sodipodi-0.dtd"
   xmlns="http://www.w3.org/2000/svg"
   xmlns:svg="http://www.w3.org/2000/svg">
  <sodipodi:namedview
     id="namedview1"
     pagecolor="#ffffff"
     bordercolor="#000000"
     borderopacity="0.25"
     inkscape:showpageshadow="2"
     inkscape:pageopacity="0.0"
     inkscape:pagecheckerboard="0"
     inkscape:deskcolor="#d1d1d1"
     inkscape:document-units="mm"
     inkscape:zoom="3.8954759"
     inkscape:cx="-23.360432"
     inkscape:cy="33.243692"
     inkscape:window-width="1920"
     inkscape:window-height="991"
     inkscape:window-x="-9"
     inkscape:window-y="-9"
     inkscape:window-maximized="1"
     inkscape:current-layer="layer1" />
  <defs
     id="defs1" />
  <g
     inkscape:label="Capa 1"
     inkscape:groupmode="layer"
     id="layer1"
     transform="translate(-267.35665,-144.00438)">
    <path
       d="m 271.5433,146.82155 c -0.10543,6.8e-4 -0.20982,0.0348 -0.31498,0.11141 -0.0874,0.0636 -0.17525,0.15681 -0.25205,0.26163 l -1.4e-4,2.4e-4 c -0.0711,0.10877 -0.12739,0.2238 -0.15611,0.32801 -0.069,0.25072 0.0207,0.43843 0.19851,0.60493 0.17779,0.16649 0.44363,0.31173 0.65711,0.41992 0.21349,0.1082 0.37454,0.17934 0.55998,0.28734 0.18543,0.10796 0.39519,0.25287 0.59495,0.35754 0.19979,0.10463 0.38956,0.16917 0.57934,0.23366 0.0662,0.008 0.13233,0.0165 0.19911,-0.0103 l 0.56707,0.35952 c -0.86038,0.96883 -1.33625,2.21916 -1.33771,3.51489 0.005,0.39648 0.0533,0.79122 0.14579,1.17681 -0.30012,0.18414 -0.59301,0.36283 -0.8357,0.50366 -0.31606,0.18344 -0.55307,0.30725 -0.73053,0.39307 -0.17745,0.0858 -0.29535,0.13367 -0.394,0.20421 -0.0987,0.0705 -0.17803,0.16378 -0.21509,0.24815 -0.0371,0.0844 -0.0318,0.15904 -0.0131,0.21742 0.0187,0.0583 0.051,0.0992 0.0858,0.13519 0.0348,0.0358 0.0724,0.067 0.12634,0.0937 0.0541,0.0268 0.12487,0.0492 0.20341,0.0568 0.0786,0.008 0.16487,5.4e-4 0.25288,-0.0165 0.0881,-0.0175 0.17776,-0.0449 0.2577,-0.0884 0.0799,-0.0435 0.15013,-0.1028 0.1965,-0.15004 0.0463,-0.0473 0.069,-0.0826 0.0915,-0.11786 -0.0675,-0.0147 -0.13495,-0.0295 -0.19313,-0.0499 -0.0582,-0.0203 -0.10716,-0.0462 -0.14742,-0.0706 -0.0403,-0.0245 -0.0719,-0.0474 -0.082,-0.0721 -0.0103,-0.0248 10e-4,-0.0512 0.0434,-0.0797 0.0419,-0.0285 0.11439,-0.059 0.18924,-0.0821 0.0748,-0.0231 0.15187,-0.0386 0.23442,-0.055 0.0826,-0.0164 0.17055,-0.0337 0.42626,-0.14738 0.16722,-0.0743 0.41375,-0.19418 0.67753,-0.32396 0.24068,0.67084 0.61413,1.28628 1.09803,1.80954 0.4839,0.52323 1.06831,0.94356 1.71834,1.23585 -0.0807,0.10314 -0.17196,0.21982 -0.19713,0.24914 -0.82288,0.95825 -2.39935,-1.12415 -3.07591,-1.11061 -0.22158,0.005 -0.37014,0.13555 -0.43344,0.34998 -0.0237,0.0458 -0.05,0.0611 -0.078,0.0548 -0.028,-0.006 -0.0577,-0.0342 -0.09,-0.0704 -0.0326,-0.0362 -0.0679,-0.0807 -0.0989,-0.13528 -0.031,-0.0546 -0.0575,-0.11908 -0.0841,-0.18358 -0.034,0.0275 -0.068,0.0551 -0.11095,0.10808 -0.0429,0.053 -0.0949,0.13108 -0.12844,0.2166 -0.0335,0.0856 -0.0487,0.17842 -0.0531,0.26804 -0.003,0.0896 0.002,0.176 0.023,0.25251 0.0209,0.0765 0.056,0.14319 0.0933,0.19271 0.0372,0.0495 0.0763,0.0819 0.12014,0.11095 0.0858,0.0568 0.26171,0.14267 0.41146,0.0195 0.0601,-0.0494 0.14671,-0.14173 0.20607,-0.24975 0.0594,-0.10808 0.0914,-0.23182 0.15447,-0.42008 0.11705,-0.54514 1.75301,1.20916 2.58345,1.15341 0.11738,-0.008 0.57439,0.0791 1.06472,-0.68157 0.59338,0.22959 1.22322,0.35048 1.85944,0.35695 0.63688,-0.005 1.26767,-0.12436 1.86215,-0.35288 0.4893,0.75613 0.94486,0.66963 1.06202,0.6775 0.83045,0.0558 2.4664,-1.69855 2.58343,-1.15341 0.063,0.18826 0.0951,0.31205 0.15449,0.42006 0.0594,0.10808 0.14599,0.2004 0.20606,0.24977 0.14977,0.12311 0.32561,0.0372 0.41147,-0.0195 0.044,-0.0291 0.0829,-0.0615 0.12014,-0.11095 0.0372,-0.0495 0.0725,-0.11618 0.0933,-0.1927 0.0209,-0.0765 0.0273,-0.16288 0.0231,-0.25252 -0.003,-0.0896 -0.0194,-0.18248 -0.0531,-0.26804 -0.0334,-0.0856 -0.0855,-0.16372 -0.12839,-0.2166 -0.043,-0.0529 -0.077,-0.0805 -0.11096,-0.10808 -0.0265,0.0644 -0.0532,0.12907 -0.0841,0.18358 -0.031,0.0546 -0.0664,0.0991 -0.0989,0.13528 -0.0325,0.0362 -0.062,0.0641 -0.09,0.0704 -0.028,0.006 -0.0543,-0.009 -0.078,-0.0548 -0.0633,-0.21443 -0.21185,-0.34553 -0.43343,-0.34996 -0.67657,-0.0136 -2.25303,2.06884 -3.07589,1.1106 -0.0248,-0.0287 -0.1144,-0.14373 -0.19349,-0.24457 0.65037,-0.29081 1.23544,-0.7097 1.72032,-1.23165 0.48487,-0.52195 0.85961,-1.13627 1.10179,-1.80626 0.25347,0.12461 0.49112,0.24009 0.65272,0.3119 0.25569,0.1136 0.34368,0.13094 0.42624,0.14738 0.0826,0.0164 0.15964,0.032 0.23443,0.055 0.0748,0.023 0.1473,0.0535 0.18935,0.0821 0.0419,0.0285 0.0533,0.055 0.0432,0.0797 -0.0103,0.0248 -0.0416,0.0477 -0.0819,0.0721 -0.0403,0.0245 -0.0892,0.0503 -0.14744,0.0706 -0.0582,0.0203 -0.12564,0.035 -0.19311,0.0499 0.0226,0.0354 0.0451,0.0706 0.0915,0.11786 0.0463,0.0473 0.11652,0.10659 0.19647,0.15004 0.0799,0.0435 0.1696,0.0712 0.25776,0.0885 0.088,0.0173 0.17435,0.0241 0.25282,0.0165 0.0787,-0.008 0.14936,-0.03 0.20338,-0.0568 0.0542,-0.0268 0.0917,-0.0579 0.12642,-0.0937 0.0348,-0.0358 0.0671,-0.0768 0.0858,-0.13518 0.0188,-0.0584 0.0239,-0.13305 -0.0131,-0.21741 -0.0371,-0.0844 -0.11647,-0.17764 -0.21512,-0.24817 -0.0987,-0.0705 -0.2165,-0.11838 -0.39403,-0.2042 -0.17739,-0.0858 -0.41444,-0.20964 -0.73051,-0.39307 -0.23595,-0.13692 -0.52032,-0.31036 -0.8116,-0.48899 0.0906,-0.3907 0.13665,-0.79041 0.13714,-1.19149 -3.7e-4,-1.29884 -0.47744,-2.55237 -1.34073,-3.52278 l 0.55465,-0.35162 c 0.0668,0.0273 0.13294,0.0192 0.19911,0.0103 0.18978,-0.0644 0.37954,-0.12897 0.57931,-0.23365 0.19976,-0.10463 0.40954,-0.24952 0.59498,-0.35755 0.18543,-0.10796 0.34648,-0.17911 0.55996,-0.28732 0.21348,-0.10819 0.47931,-0.25345 0.65713,-0.41993 0.1778,-0.16651 0.2676,-0.35422 0.19851,-0.60493 -0.0286,-0.10417 -0.0851,-0.21924 -0.15611,-0.32802 l -1.4e-4,-2.3e-4 c -0.0768,-0.10487 -0.16455,-0.19806 -0.252,-0.26162 -0.1051,-0.0765 -0.2096,-0.11026 -0.31501,-0.11141 -0.10543,-6.8e-4 -0.21188,0.0302 -0.3211,0.0841 -0.21844,0.10774 -0.448,0.30543 -0.62447,0.46712 -0.17645,0.16171 -0.29978,0.28738 -0.46618,0.42289 -0.1664,0.13549 -0.37581,0.28081 -0.54413,0.43091 -0.16835,0.1501 -0.29551,0.305 -0.42269,0.45992 -0.0337,0.064 -0.0666,0.12814 -0.0581,0.2088 l -0.65072,0.40851 c -0.96667,-0.84801 -2.20858,-1.31582 -3.49451,-1.31634 -1.28859,6.8e-4 -2.5327,0.47118 -3.49983,1.3227 h -5e-5 l -0.66076,-0.41484 c 0.008,-0.0806 -0.0245,-0.14491 -0.0582,-0.20883 -0.12716,-0.15492 -0.25437,-0.30982 -0.42269,-0.45992 -0.16832,-0.1501 -0.37772,-0.29542 -0.54413,-0.43091 -0.1664,-0.13552 -0.28972,-0.2612 -0.46619,-0.42289 -0.17646,-0.16169 -0.40601,-0.35936 -0.62446,-0.46712 -0.10923,-0.0539 -0.21563,-0.0853 -0.32106,-0.0841 z m 0.29645,0.71632 c 0.0431,0.002 0.0846,0.0162 0.11985,0.0411 0.10141,0.0718 0.12543,0.21208 0.0538,0.31345 -0.0718,0.10142 -0.21213,0.12542 -0.3135,0.0536 -0.10142,-0.0717 -0.12539,-0.21206 -0.0536,-0.31344 0.0442,-0.0625 0.11712,-0.0982 0.19359,-0.0948 z m 12.58638,0 c 0.0765,-0.003 0.14942,0.0323 0.19369,0.0948 0.0717,0.10141 0.0477,0.24171 -0.0538,0.31345 -0.10131,0.0717 -0.24169,0.0477 -0.31343,-0.0538 -0.0718,-0.10142 -0.0477,-0.24172 0.0536,-0.31345 0.0353,-0.0249 0.0768,-0.0392 0.11986,-0.0411 z m -6.48686,0.80061 c 0.034,-0.001 0.0688,0.007 0.0999,0.0265 0.0832,0.0515 0.10865,0.16003 0.0572,0.24324 l -2.16439,3.49462 c -0.0514,0.0833 -0.16,0.10877 -0.24321,0.0572 -0.0833,-0.0515 -0.10877,-0.16004 -0.0572,-0.24325 l 2.16439,-3.49461 c 0.0322,-0.052 0.0867,-0.0815 0.14331,-0.0837 z m 0.6654,0.0399 c 0.034,-0.001 0.0688,0.006 0.10027,0.0253 0.0837,0.0506 0.11049,0.15882 0.0598,0.24259 l -1.74901,2.89557 c -0.0507,0.0838 -0.15882,0.11049 -0.24261,0.0598 -0.0838,-0.0507 -0.11049,-0.15881 -0.0599,-0.24261 l 1.74898,-2.89557 c 0.0317,-0.0523 0.0858,-0.0825 0.14237,-0.0852 z m -5.50457,0.0453 c 0.0431,0.002 0.0846,0.0162 0.11985,0.0411 0.10142,0.0718 0.12543,0.21204 0.0538,0.31344 -0.0718,0.10142 -0.21211,0.12546 -0.31349,0.0536 -0.10142,-0.0717 -0.12543,-0.2121 -0.0538,-0.31349 0.0442,-0.0625 0.11716,-0.0982 0.19362,-0.0948 z m 10.06572,0 c 0.0765,-0.003 0.14938,0.0323 0.19358,0.0948 0.0717,0.10141 0.0477,0.24176 -0.0536,0.31349 -0.10142,0.0717 -0.24176,0.0477 -0.3135,-0.0537 -0.0717,-0.10142 -0.0477,-0.2417 0.0538,-0.31345 0.0353,-0.0249 0.0767,-0.0392 0.11985,-0.0411 z m -6.06028,0.0256 c 0.034,-10e-4 0.0688,0.007 0.10004,0.0261 0.0834,0.0512 0.10946,0.15959 0.0582,0.24303 l -2.48198,4.04632 c -0.0512,0.0834 -0.15959,0.10934 -0.24302,0.0582 -0.0835,-0.0512 -0.10946,-0.15955 -0.0582,-0.24298 l 2.48203,-4.04636 c 0.032,-0.0522 0.0864,-0.0819 0.14295,-0.0843 z m 2.16919,0.0593 c 0.0287,6.8e-4 0.0575,0.009 0.0837,0.0248 0.0836,0.0509 0.10796,0.16245 0.0547,0.25021 l -1.2833,2.11052 c -0.0533,0.0877 -0.16369,0.11748 -0.24735,0.0666 -0.0836,-0.0509 -0.10796,-0.16245 -0.0547,-0.25021 l 1.2833,-2.11053 c 0.0368,-0.0604 0.10027,-0.0933 0.16364,-0.0914 z m 0.54764,0.21298 c 0.034,-0.001 0.0688,0.007 0.10015,0.0257 0.0836,0.0509 0.11004,0.15914 0.0591,0.24275 l -0.81318,1.33649 c -0.0509,0.0836 -0.15916,0.11004 -0.24279,0.0591 -0.0836,-0.0509 -0.10991,-0.15916 -0.059,-0.24279 l 0.81314,-1.33648 c 0.0318,-0.0523 0.086,-0.0821 0.14262,-0.0848 z m -3.70039,0.10486 c 0.034,-6.9e-4 0.0687,0.008 0.0999,0.0268 0.0831,0.0517 0.10842,0.16025 0.0567,0.24336 l -2.7416,4.40793 c -0.0517,0.0832 -0.16023,0.10843 -0.24334,0.0567 -0.0832,-0.0517 -0.10842,-0.16023 -0.0567,-0.24335 l 2.74156,-4.40793 c 0.0324,-0.052 0.0868,-0.0813 0.14346,-0.0834 z m 4.22499,0.19433 c 0.003,-6e-5 0.008,-3e-5 0.0117,1.4e-4 0.0285,6.9e-4 0.057,0.009 0.0833,0.0253 0.0838,0.0504 0.11072,0.15864 0.0603,0.24251 l -0.19057,0.31653 c -0.0505,0.0838 -0.15864,0.11072 -0.24251,0.0603 -0.0838,-0.0504 -0.11072,-0.15864 -0.0603,-0.2425 l 0.19051,-0.31654 c 0.0325,-0.054 0.089,-0.0844 0.14756,-0.0857 z m 0.83594,0.37246 c 0.0595,10e-4 0.11531,0.0308 0.14658,0.0834 0.0501,0.0842 0.0177,0.19504 -0.0725,0.24873 l -7.7017,4.58466 c -0.0903,0.0536 -0.20313,0.0292 -0.25316,-0.055 -0.0501,-0.0841 -0.0178,-0.19506 0.0725,-0.24872 l 7.70171,-4.58461 c 0.0339,-0.0201 0.071,-0.0293 0.10659,-0.0284 z m -6.27901,0.18728 c 0.034,-0.001 0.0688,0.007 0.10015,0.026 0.0835,0.051 0.10957,0.15942 0.0586,0.24293 l -1.54541,2.52788 c -0.051,0.0835 -0.15936,0.10957 -0.24288,0.0586 -0.0835,-0.051 -0.10969,-0.15937 -0.0586,-0.24288 l 1.54541,-2.52788 c 0.0318,-0.0521 0.0861,-0.082 0.14278,-0.0845 z m 6.73437,0.28 c 0.0595,0.001 0.11535,0.0308 0.14663,0.0834 0.0501,0.0842 0.0177,0.19503 -0.0725,0.24868 l -7.95655,4.72913 c -0.0903,0.0536 -0.20316,0.0292 -0.25322,-0.055 -0.05,-0.0842 -0.0177,-0.19507 0.0725,-0.24873 l 7.95661,-4.72909 c 0.0339,-0.0202 0.0709,-0.0293 0.10659,-0.0284 z m 0.39868,0.52902 c 0.0595,0.001 0.11535,0.0308 0.14661,0.0834 0.0501,0.0842 0.0178,0.19502 -0.0725,0.24873 l -8.14107,4.84741 c -0.0903,0.0536 -0.20312,0.0292 -0.25317,-0.055 -0.05,-0.0841 -0.0177,-0.19507 0.0725,-0.24873 l 8.14106,-4.84739 c 0.0339,-0.0201 0.0709,-0.0293 0.10659,-0.0284 z m 0.3732,0.54628 c 0.0595,0.001 0.11535,0.0308 0.14663,0.0834 0.05,0.0841 0.0177,0.195 -0.0725,0.24866 l -8.16116,4.85488 c -0.0903,0.0536 -0.20313,0.0292 -0.25316,-0.055 -0.05,-0.0842 -0.0177,-0.19508 0.0725,-0.24872 l 8.16118,-4.85485 c 0.0339,-0.0201 0.0709,-0.0293 0.10647,-0.0284 z m 0.28527,0.62138 c 0.0595,10e-4 0.11535,0.0308 0.14663,0.0834 0.05,0.0842 0.0178,0.19502 -0.0725,0.24868 l -8.02428,4.75031 c -0.0902,0.0536 -0.20311,0.0292 -0.25316,-0.055 -0.0501,-0.0841 -0.0177,-0.19505 0.0725,-0.24872 l 8.02421,-4.75025 c 0.0339,-0.0201 0.071,-0.0293 0.10658,-0.0284 z m 0.19191,0.67456 c 0.0285,-6.9e-4 0.0567,0.005 0.0822,0.017 0.0308,0.0146 0.0575,0.0383 0.0763,0.0698 0.0497,0.0843 0.0219,0.19224 -0.0624,0.242 l -4.08792,2.41291 c -0.0843,0.0498 -0.19222,0.0219 -0.24198,-0.0624 -0.0498,-0.0843 -0.0219,-0.1922 0.0624,-0.24194 l 4.08793,-2.41294 c 0.0264,-0.0156 0.055,-0.0235 0.0835,-0.0246 z m 0.0215,0.75507 c 0.0285,-6.9e-4 0.0567,0.005 0.0822,0.0171 0.0308,0.0147 0.0575,0.0384 0.0761,0.07 0.0496,0.0844 0.0215,0.19222 -0.0627,0.24185 l -3.6701,2.21065 c -0.0844,0.0496 -0.19224,0.0217 -0.24187,-0.0627 -0.0496,-0.0844 -0.0216,-0.19224 0.0628,-0.24187 l 3.67011,-2.21064 c 0.0264,-0.0155 0.055,-0.0234 0.0835,-0.0245 z m -0.0295,0.79148 c 0.0285,-5.2e-4 0.0567,0.005 0.0821,0.018 0.0304,0.0151 0.057,0.0391 0.0752,0.071 0.0486,0.085 0.0194,0.19248 -0.0656,0.2411 l -3.25886,1.96645 c -0.085,0.0487 -0.19249,0.0194 -0.24112,-0.0656 -0.0486,-0.085 -0.0193,-0.19249 0.0656,-0.24112 l 3.25883,-1.96644 c 0.0265,-0.0152 0.0554,-0.0227 0.0838,-0.0234 z m -0.20579,0.9017 c 0.0324,0 0.064,0.008 0.0913,0.0243 0.0249,0.0145 0.0463,0.0354 0.0616,0.0619 0.0489,0.0848 0.0168,0.19435 -0.0722,0.24574 l -2.70759,1.65216 c -0.0889,0.0513 -0.19999,0.0246 -0.24896,-0.0602 -0.049,-0.0848 -0.0168,-0.19434 0.0722,-0.24573 l 2.70758,-1.65218 c 0.0307,-0.0177 0.0637,-0.0261 0.0961,-0.0261 z m -4.73955,0.43456 0.20668,-1e-5 h 4e-5 l 3e-5,1e-5 0.20668,-1e-5 c 0.0669,0.003 0.13694,0.0484 0.18111,0.1216 l 1.39023,2.30205 c 0.0512,0.0833 0.0161,0.19258 -0.0741,0.23048 -0.0696,0.0293 -0.16072,-4.5e-4 -0.20373,-0.0663 -0.23525,-0.36005 -0.89976,-1.41045 -1.3824,-2.11332 -0.032,-0.0466 -0.075,-0.0708 -0.11786,-0.0717 h -3e-5 -4e-5 c -0.043,6.9e-4 -0.0858,0.0249 -0.11786,0.0717 -0.48262,0.70287 -1.14714,1.75327 -1.38239,2.11332 -0.0431,0.0657 -0.13419,0.0954 -0.20374,0.0663 -0.0902,-0.0379 -0.12522,-0.14722 -0.0741,-0.23048 l 1.39021,-2.30205 c 0.0442,-0.0733 0.11428,-0.11752 0.18111,-0.12159 z m 4.31391,0.60698 c 0.0285,-1.1e-4 0.0565,0.007 0.0818,0.0198 0.0302,0.0155 0.0562,0.0402 0.0739,0.0724 0.0471,0.0859 0.0157,0.19282 -0.0702,0.23982 l -1.91297,1.17433 c -0.0858,0.0471 -0.19283,0.0157 -0.23984,-0.0702 -0.0471,-0.0859 -0.0155,-0.19287 0.0702,-0.23985 l 1.91289,-1.17434 c 0.0269,-0.0147 0.0557,-0.0217 0.0842,-0.0218 z m -5.58077,0.0902 c 0.034,-0.001 0.0688,0.007 0.10016,0.0257 0.0836,0.0509 0.11003,0.15913 0.0591,0.24275 l -0.81322,1.33649 c -0.0508,0.0836 -0.15915,0.11003 -0.24279,0.0591 -0.0836,-0.0509 -0.10992,-0.15918 -0.059,-0.2428 l 0.81314,-1.33647 c 0.0318,-0.0523 0.086,-0.0822 0.14261,-0.0848 z m 1.47096,0.36989 c 0.034,-5.2e-4 0.0686,0.008 0.0995,0.0281 0.0823,0.0531 0.10601,0.16182 0.0532,0.24415 l -0.98571,1.54002 c -0.0531,0.0823 -0.1618,0.10601 -0.24414,0.0532 -0.0823,-0.0531 -0.10601,-0.16186 -0.0531,-0.24418 l 0.98566,-1.54003 c 0.0331,-0.0515 0.088,-0.0801 0.14466,-0.0813 z m -2.65217,0.3346 c 0.003,0 0.008,0 0.0117,2.1e-4 0.0285,6.8e-4 0.057,0.009 0.0833,0.0253 0.0838,0.0505 0.11072,0.15866 0.0603,0.24251 l -0.19055,0.31654 c -0.0505,0.0838 -0.15865,0.11072 -0.24252,0.0603 -0.0838,-0.0505 -0.11072,-0.15865 -0.0603,-0.2425 l 0.19053,-0.31653 c 0.0325,-0.054 0.089,-0.0844 0.14756,-0.0857 z m 3.10943,0.24037 v 5e-5 c 0.0299,5.3e-4 0.06,0.009 0.0874,0.026 0.0836,0.0509 0.11004,0.15913 0.0592,0.24275 l -0.62863,1.05809 c -0.0509,0.0836 -0.15918,0.11003 -0.2428,0.0592 -0.0836,-0.0509 -0.10991,-0.15917 -0.059,-0.24277 l 0.62855,-1.05811 c 0.0318,-0.0523 0.086,-0.0821 0.14261,-0.0848 0.003,-2.4e-4 0.008,-2.7e-4 0.0129,-1.9e-4 z m 0.41237,0.6297 c 0.017,-9e-5 0.0461,0.002 0.08,0.0204 0.0865,0.0458 0.11937,0.15229 0.0736,0.23881 l -0.27747,0.50179 c -0.0458,0.0866 -0.15228,0.11934 -0.23881,0.0736 -0.0865,-0.0458 -0.11932,-0.15225 -0.0736,-0.23878 l 0.27741,-0.5018 c 0.0295,-0.0558 0.0843,-0.0892 0.14262,-0.0937 v -4e-5 c 3e-5,6.9e-4 0.006,-2.2e-4 0.0162,-2.9e-4 z"
       fill="#062E32"
       id="path1"
       style="fill:#f2f2f2;fill-opacity:1;stroke-width:0.13816"
       sodipodi:nodetypes="scccccsccccccccsssscccscsccccccsccscccccsscssscscscccccccccccccscccscccccccccsccccccccccccssccccccccscccccccscsccccccccccccccscccccccccccccsccccccsscccccsccccccccccccccccccccsccccccsccccccccccccccccccscccccccsccscccccccccccccccccccccccsccccsccsccccsccsccccccccccccccccccccccccccccccsccccsccsccccccccccscscccccccccccccccccccccccsscccccscccccscccccccccccccccccccccccc" />
  </g>
</svg>
