<?xml version="1.0" encoding="UTF-8" standalone="no"?>
<svg
   width="107"
   height="144"
   viewBox="0 0 107 144"
   fill="none"
   version="1.1"
   id="svg1"
   sodipodi:docname="EHQALogo.svg"
   inkscape:version="1.4.2 (f4327f4, 2025-05-13)"
   inkscape:export-filename="C:\Users\buste\Pictures\EHQALogo.png"
   inkscape:export-xdpi="448.59814"
   inkscape:export-ydpi="448.59814"
   xmlns:inkscape="http://www.inkscape.org/namespaces/inkscape"
   xmlns:sodipodi="http://sodipodi.sourceforge.net/DTD/sodipodi-0.dtd"
   xmlns="http://www.w3.org/2000/svg"
   xmlns:svg="http://www.w3.org/2000/svg">
  <sodipodi:namedview
     id="namedview1"
     pagecolor="#ffffff"
     bordercolor="#000000"
     borderopacity="0.25"
     inkscape:showpageshadow="2"
     inkscape:pageopacity="0.0"
     inkscape:pagecheckerboard="0"
     inkscape:deskcolor="#d1d1d1"
     inkscape:zoom="5.3680556"
     inkscape:cx="53.557567"
     inkscape:cy="57.469598"
     inkscape:window-width="1920"
     inkscape:window-height="991"
     inkscape:window-x="-9"
     inkscape:window-y="-9"
     inkscape:window-maximized="1"
     inkscape:current-layer="svg1" />
  <g
     clip-path="url(#clip0_55_53)"
     id="g1"
     style="fill:#ffffff">
    <path
       d="M5.51577 0.000340834C4.75274 0.00881273 3.99712 0.253182 3.23592 0.806618C2.60308 1.26674 1.96742 1.94159 1.41164 2.70023L1.41062 2.70193C0.896348 3.48928 0.488417 4.32178 0.280674 5.07613C-0.219104 6.89084 0.430452 8.24949 1.71738 9.45456C3.00431 10.6596 4.9284 11.7109 6.47359 12.494C8.01878 13.2771 9.18451 13.7919 10.5267 14.5737C11.8688 15.3555 13.3871 16.404 14.833 17.1616C16.279 17.9192 17.6525 18.386 19.0261 18.8527C19.5049 18.9131 19.984 18.9723 20.4672 18.7742L24.5717 21.3764C18.3443 28.3887 14.9 37.4386 14.8895 46.817C14.9217 49.6867 15.2756 52.5438 15.9447 55.3347C13.7724 56.6674 11.6525 57.9608 9.89589 58.9802C7.60818 60.3079 5.89279 61.204 4.60837 61.8252C3.32393 62.4464 2.47055 62.7927 1.7566 63.3032C1.04265 63.8137 0.468098 64.4887 0.199841 65.0994C-0.0684197 65.7101 -0.0309245 66.2505 0.104796 66.6731C0.240511 67.0957 0.473981 67.3914 0.726078 67.6515C0.978175 67.9117 1.24902 68.1362 1.6406 68.3296C2.03217 68.5231 2.54431 68.6853 3.1128 68.7412C3.6813 68.7972 4.30607 68.7468 4.94318 68.6215C5.58029 68.4962 6.22971 68.296 6.80841 67.9813C7.38712 67.6665 7.89498 67.2376 8.23055 66.8953C8.56612 66.553 8.72949 66.2977 8.89278 66.0423C8.40447 65.9355 7.91616 65.8285 7.49497 65.6815C7.07376 65.5344 6.71953 65.3473 6.42791 65.1704C6.1363 64.9936 5.90734 64.8273 5.83437 64.6482C5.76139 64.4692 5.84465 64.2776 6.14856 64.0713C6.45246 63.8649 6.977 63.6439 7.5183 63.477C8.0596 63.3102 8.61752 63.1976 9.21508 63.0786C9.81263 62.9596 10.4495 62.8343 12.3002 62.0119C13.5106 61.474 15.295 60.6064 17.2042 59.6671C18.9462 64.5226 21.6492 68.9771 25.1517 72.7644C28.6541 76.5516 32.8841 79.5939 37.589 81.7094C37.0041 82.4556 36.3443 83.3005 36.1621 83.5127C30.2062 90.4485 18.7958 75.3762 13.8989 75.4742C12.2951 75.5064 11.2197 76.4552 10.7617 78.0074C10.5905 78.3386 10.3998 78.4496 10.1972 78.4041C9.99468 78.3586 9.78046 78.1568 9.54516 77.8948C9.30987 77.6328 9.05382 77.3103 8.82952 76.9157C8.60523 76.5211 8.41295 76.0538 8.22075 75.5869C7.97477 75.7863 7.72887 75.986 7.41785 76.3688C7.10682 76.7516 6.73076 77.3176 6.48812 77.9367C6.24548 78.5558 6.13591 79.228 6.10459 79.8767C6.07328 80.5254 6.12016 81.1505 6.27099 81.7043C6.42182 82.2582 6.67701 82.7407 6.94605 83.0991C7.21509 83.4575 7.49783 83.6918 7.81558 83.9024C8.437 84.3141 9.70985 84.9351 10.7938 84.0441C11.2286 83.6867 11.8557 83.0183 12.2853 82.2364C12.715 81.4544 12.9473 80.5585 13.4034 79.1959C14.2506 75.2502 26.0915 87.9477 32.1022 87.5442C32.9518 87.4872 36.2597 88.1167 39.8086 82.6111C44.1035 84.2728 48.6623 85.1479 53.2672 85.1946C57.8769 85.1597 62.4425 84.2945 66.7454 82.6405C70.2869 88.1134 73.5842 87.4873 74.4322 87.5442C80.443 87.9477 92.2838 75.2502 93.131 79.1959C93.5871 80.5585 93.8194 81.4544 94.2491 82.2363C94.6788 83.0183 95.3058 83.6867 95.7406 84.0441C96.8246 84.9351 98.0974 84.3141 98.7188 83.9024C99.0366 83.6918 99.3193 83.4575 99.5884 83.0991C99.8574 82.7407 100.113 82.2582 100.263 81.7044C100.414 81.1505 100.461 80.5254 100.43 79.8767C100.399 79.228 100.289 78.5558 100.046 77.9367C99.8037 77.3176 99.4276 76.7516 99.1166 76.3688C98.8055 75.986 98.5597 75.7864 98.3137 75.5869C98.1215 76.0538 97.9292 76.5211 97.7049 76.9157C97.4806 77.3103 97.2245 77.6327 96.9892 77.8948C96.7539 78.1568 96.5397 78.3587 96.3372 78.4041C96.1346 78.4496 95.9439 78.3386 95.7727 78.0074C95.3147 76.4552 94.2393 75.5064 92.6355 75.4743C87.7386 75.3762 76.3282 90.4485 70.3724 83.5128C70.1934 83.3044 69.5441 82.4725 68.9719 81.7426C73.6792 79.6377 77.914 76.6058 81.4235 72.828C84.933 69.0501 87.6453 64.6037 89.3982 59.7544C91.2329 60.6562 92.9529 61.4921 94.1226 62.0119C95.9733 62.8343 96.6102 62.9596 97.2077 63.0786C97.8053 63.1976 98.3632 63.3102 98.9045 63.477C99.4458 63.6439 99.9707 63.865 100.275 64.0713C100.579 64.2775 100.661 64.4692 100.588 64.6482C100.515 64.8273 100.287 64.9936 99.9949 65.1705C99.7033 65.3473 99.349 65.5348 98.9279 65.6818C98.5066 65.8288 98.0184 65.9355 97.5301 66.0423C97.6933 66.2977 97.8567 66.553 98.1923 66.8953C98.5278 67.2376 99.0357 67.6665 99.6144 67.9813C100.193 68.296 100.842 68.4966 101.48 68.6218C102.117 68.7471 102.742 68.7971 103.31 68.7412C103.879 68.6853 104.391 68.5234 104.782 68.33C105.174 68.1365 105.445 67.9117 105.697 67.6515C105.949 67.3914 106.182 67.0957 106.318 66.6731C106.454 66.2505 106.491 65.7101 106.223 65.0994C105.955 64.4887 105.38 63.8137 104.666 63.3032C103.952 62.7926 103.099 62.4464 101.814 61.8252C100.53 61.204 98.8143 60.3079 96.5266 58.9802C94.8188 57.9892 92.7605 56.7338 90.6523 55.4409C91.3082 52.6131 91.6413 49.7199 91.6449 46.817C91.6423 37.416 88.1892 28.343 81.9407 21.3192L85.9552 18.7742C86.4385 18.9723 86.9175 18.9132 87.3964 18.8527C88.77 18.3861 90.1435 17.9192 91.5894 17.1616C93.0353 16.404 94.5537 15.3555 95.8958 14.5737C97.238 13.7919 98.4037 13.2772 99.9489 12.494C101.494 11.7109 103.418 10.6596 104.705 9.45456C105.992 8.24947 106.642 6.89085 106.142 5.07613C105.934 4.32178 105.526 3.48927 105.012 2.70193L105.011 2.70024C104.455 1.9416 103.82 1.26674 103.187 0.806615C102.426 0.253171 101.67 0.00880754 100.907 0.000333419C100.144 -0.00812556 99.3734 0.219098 98.5829 0.60911C97.0018 1.38916 95.3403 2.81982 94.0631 3.99017C92.7859 5.16052 91.8932 6.07014 90.6888 7.05095C89.4844 8.03173 87.9687 9.08344 86.7504 10.1699C85.532 11.2563 84.6115 12.3775 83.691 13.4988C83.4469 13.9613 83.2084 14.4263 83.2702 15.01L78.5604 17.9669C71.5636 11.829 62.5747 8.443 53.2672 8.43928C43.9405 8.44636 34.9356 11.8496 27.9355 18.0129L27.9352 18.0129L23.1526 15.0103C23.2145 14.4265 22.9757 13.9614 22.7315 13.4988C21.811 12.3775 20.8904 11.2563 19.6721 10.1699C18.4538 9.08343 16.9381 8.03171 15.7337 7.05094C14.5293 6.07012 13.6366 5.1605 12.3594 3.99016C11.0822 2.8198 9.42071 1.38916 7.83959 0.609113C7.04904 0.21908 6.2788 -0.00813106 5.51577 0.000340834ZM7.66136 5.18504C7.973 5.19902 8.27419 5.3021 8.52886 5.48232C9.26269 6.0015 9.43668 7.01724 8.91746 7.75103C8.39821 8.48483 7.38222 8.65884 6.64843 8.13962C5.9146 7.62043 5.74094 6.60474 6.26017 5.87093C6.58013 5.41873 7.10793 5.1603 7.66136 5.18504ZM98.7611 5.18504C99.3146 5.1603 99.8427 5.4187 100.163 5.87091C100.682 6.60472 100.508 7.62043 99.774 8.13961C99.0403 8.65884 98.0246 8.48481 97.5054 7.75102C96.9861 7.01723 97.1598 6.00151 97.8936 5.48233C98.1483 5.3021 98.4495 5.19902 98.7611 5.18504ZM51.8095 10.9799C52.0555 10.9703 52.3071 11.0318 52.533 11.1717C53.1353 11.5447 53.3196 12.33 52.9466 12.9323L37.2809 38.2262C36.9078 38.8285 36.1228 39.0132 35.5205 38.6401C34.9181 38.2671 34.7335 37.4818 35.1065 36.8794L50.7723 11.5856C51.0054 11.2092 51.3997 10.9958 51.8095 10.9799ZM56.6256 11.2677C56.8714 11.2554 57.1237 11.3139 57.3511 11.4513C57.9575 11.8177 58.1509 12.6009 57.7846 13.2073L45.1252 34.1653C44.7589 34.7718 43.9757 34.9652 43.3692 34.5989C42.7628 34.2326 42.5697 33.4494 42.936 32.8429L55.5951 11.8849C55.824 11.5059 56.2159 11.2882 56.6256 11.2677ZM16.7838 11.5954C17.0955 11.6094 17.3967 11.7128 17.6513 11.893C18.3852 12.4123 18.5591 13.4278 18.0399 14.1617C17.5207 14.8957 16.5047 15.0698 15.7709 14.5503C15.0371 14.0311 14.8631 13.0151 15.3823 12.2813C15.7023 11.8291 16.2304 11.5707 16.7838 11.5954ZM89.639 11.5954C90.1924 11.5707 90.7202 11.8291 91.0402 12.2813C91.5594 13.0151 91.3854 14.0311 90.6516 14.5503C89.9178 15.0698 88.9018 14.8957 88.3826 14.1617C87.8634 13.4278 88.0377 12.4123 88.7715 11.893C89.0262 11.7128 89.3273 11.6094 89.639 11.5954ZM45.7749 11.7804C46.0208 11.7698 46.2725 11.8302 46.499 11.9691C47.1029 12.3396 47.2909 13.1242 46.9204 13.7282L28.9559 43.0152C28.5854 43.6191 27.8008 43.807 27.1969 43.4366C26.5929 43.0661 26.405 42.2818 26.7755 41.6779L44.7403 12.3905C44.9719 12.0131 45.3651 11.7981 45.7749 11.7804ZM61.4755 12.2089C61.6839 12.215 61.892 12.2731 62.0812 12.3882C62.6866 12.7563 62.8629 13.564 62.4766 14.1993L53.1881 29.4751C52.8018 30.1103 52.0033 30.3254 51.3979 29.9573C50.7926 29.5892 50.6163 28.7815 51.0026 28.1463L60.2911 12.8704C60.5567 12.4337 61.017 12.1955 61.4755 12.2089ZM65.4393 13.7505C65.6851 13.7389 65.9374 13.7987 66.1644 13.9368C66.7697 14.3051 66.9605 15.0885 66.5922 15.6938L60.7064 25.3672C60.3382 25.9725 59.5544 26.1633 58.9491 25.795C58.3438 25.4268 58.1533 24.643 58.5216 24.0377L64.4071 14.3643C64.6373 13.986 65.0295 13.7697 65.4393 13.7505ZM38.656 14.5091C38.9019 14.5 39.1535 14.5619 39.3791 14.7022C39.9807 15.0764 40.1638 15.862 39.7897 16.4636L19.946 48.368C19.5719 48.9696 18.7863 49.1527 18.1847 48.7786C17.583 48.4044 17.4002 47.6188 17.7744 47.0172L37.6177 15.1128C37.8516 14.7368 38.2461 14.5242 38.656 14.5091ZM69.2363 15.9157C69.2645 15.9152 69.2929 15.9154 69.3212 15.9167C69.5271 15.926 69.7339 15.9855 69.9236 16.0997C70.5306 16.4651 70.7252 17.2479 70.3599 17.8549L68.9806 20.146C68.6153 20.753 67.8324 20.9476 67.2254 20.5822C66.6184 20.2169 66.424 19.434 66.7894 18.827L68.1683 16.5359C68.4038 16.1447 68.8128 15.9247 69.2363 15.9157ZM75.2868 18.6115C75.7175 18.6222 76.1214 18.8343 76.3478 19.2149C76.71 19.8238 76.4758 20.6265 75.8229 21.0152L20.0783 54.1987C19.4253 54.5871 18.6081 54.4095 18.2459 53.8006C17.8837 53.1917 18.1178 52.3887 18.7708 52.0003L74.5154 18.8171C74.7603 18.6715 75.0284 18.6051 75.2868 18.6115ZM29.8396 19.9671C30.0855 19.9561 30.3374 20.0162 30.5641 20.1548C31.1685 20.5243 31.3577 21.3086 30.9882 21.9131L19.8026 40.2097C19.4331 40.8142 18.6491 41.0031 18.0446 40.6335C17.4402 40.264 17.251 39.48 17.6205 38.8755L28.8061 20.5789C29.037 20.2011 29.4298 19.9854 29.8396 19.9671ZM78.5827 21.9936C79.0134 22.0043 79.4176 22.2164 79.644 22.5969C80.0062 23.2059 79.772 24.0085 79.1191 24.3969L21.5299 58.6261C20.8769 59.0146 20.0594 58.837 19.6971 58.2281C19.3349 57.6191 19.569 56.8162 20.222 56.4278L77.8116 22.1989C78.0564 22.0532 78.3243 21.9872 78.5827 21.9936ZM81.4683 25.8228C81.899 25.8335 82.3032 26.0456 82.5295 26.4261C82.8918 27.035 82.6575 27.8377 82.0047 28.2264L23.0799 63.3117C22.4269 63.7001 21.6097 63.5225 21.2475 62.9136C20.8853 62.3047 21.1194 61.5017 21.7724 61.1133L80.6971 26.0281C80.942 25.8824 81.2098 25.8164 81.4683 25.8228ZM84.1695 29.7767C84.6002 29.7874 85.0044 29.9995 85.2308 30.3801C85.593 30.989 85.3589 31.7916 84.7059 32.18L25.6357 67.3194C24.9827 67.7078 24.1655 67.5302 23.8033 66.9213C23.4411 66.3124 23.6752 65.5095 24.3282 65.1211L83.3984 29.982C83.6433 29.8364 83.9111 29.7703 84.1695 29.7767ZM86.2343 34.2742C86.665 34.2849 87.0692 34.497 87.2956 34.8776C87.6578 35.4865 87.4237 36.2891 86.7707 36.6775L28.6914 71.06C28.0384 71.4484 27.2212 71.2708 26.859 70.6619C26.4968 70.053 26.7309 69.2501 27.3839 68.8616L85.4628 34.4795C85.7077 34.3339 85.9759 34.2677 86.2343 34.2742ZM87.6233 39.1566C87.8293 39.149 88.0337 39.1916 88.2189 39.2797C88.4411 39.3855 88.6354 39.5565 88.7705 39.7853C89.1306 40.3954 88.9291 41.1767 88.319 41.5369L58.7309 59.0015C58.1208 59.3617 57.3395 59.1602 56.9794 58.55C56.6192 57.9399 56.8207 57.1589 57.4309 56.7988L87.0192 39.3341C87.2099 39.2216 87.4173 39.1641 87.6233 39.1566ZM87.7785 44.6217C87.9846 44.6144 88.1891 44.6574 88.3741 44.7458C88.5962 44.8519 88.7904 45.0234 88.925 45.2524C89.2842 45.8631 89.0812 46.6438 88.4705 47.003L61.9064 63.0035C61.2957 63.3627 60.515 63.1604 60.1558 62.5497C59.7967 61.939 59.9993 61.1583 60.61 60.7991L87.1741 44.7985C87.365 44.6863 87.5725 44.6289 87.7785 44.6217ZM87.5651 50.3505C87.7712 50.3458 87.9753 50.3911 88.1593 50.4818C88.3801 50.5905 88.5719 50.7646 88.7038 50.9952C89.0557 51.6101 88.8439 52.3884 88.229 52.7403L64.6414 66.9734C64.0265 67.3253 63.2482 67.1135 62.8963 66.4986C62.5444 65.8836 62.7565 65.1053 63.3715 64.7534L86.9587 50.5203C87.1509 50.4104 87.359 50.3551 87.5651 50.3505ZM86.0756 56.8769C86.31 56.8769 86.5386 56.9379 86.7365 57.0538C86.9164 57.1592 87.0712 57.3099 87.1819 57.5016C87.5363 58.1151 87.3032 58.9083 86.6594 59.2802L67.062 71.2385C66.4182 71.6105 65.6144 71.4161 65.26 70.8026C64.9056 70.1891 65.1388 69.3959 65.7826 69.024L85.38 57.0656C85.6013 56.9379 85.8413 56.8769 86.0756 56.8769ZM51.771 60.0223L53.2669 60.0222L53.2672 60.0222L53.2675 60.0223L54.7634 60.0222C55.2468 60.0517 55.7546 60.3719 56.0743 60.9023L66.1367 77.5644C66.5072 78.1671 66.2532 78.9584 65.6009 79.2327C65.0975 79.4445 64.4376 79.2295 64.1263 78.7535C62.4235 76.1474 57.6138 68.5447 54.1205 63.4574C53.8883 63.1193 53.578 62.9458 53.2675 62.9386L53.2672 62.9386L53.2669 62.9386C52.9565 62.9457 52.6461 63.1193 52.4139 63.4574C48.9206 68.5447 44.1109 76.1474 42.4081 78.7535C42.0968 79.2295 41.4369 79.4445 40.9335 79.2327C40.2813 78.9584 40.0272 78.1671 40.3978 77.5644L50.4601 60.9023C50.7799 60.3719 51.2876 60.0517 51.771 60.0223ZM82.9949 64.4156C83.201 64.4147 83.4042 64.4642 83.5865 64.5583C83.8051 64.6712 83.9936 64.8488 84.1211 65.0818C84.4613 65.7033 84.235 66.4774 83.6135 66.8175L69.7676 75.3173C69.1461 75.6574 68.3718 75.4309 68.0316 74.8093C67.6915 74.1878 67.9184 73.4134 68.54 73.0733L82.3855 64.5735C82.5797 64.4672 82.7888 64.4162 82.9949 64.4156ZM42.6015 65.068C42.8474 65.0564 43.0996 65.1162 43.3266 65.2543C43.9319 65.6226 44.1227 66.406 43.7545 67.0113L37.8686 76.6847C37.5004 77.29 36.7166 77.4808 36.1113 77.1125C35.5061 76.7443 35.3156 75.9605 35.6838 75.3552L41.5693 65.6818C41.7995 65.3035 42.1918 65.0871 42.6015 65.068ZM53.2483 67.7452C53.4943 67.7398 53.7448 67.8058 53.9683 67.9495C54.5643 68.3327 54.7357 69.1207 54.3525 69.7166L47.218 80.8632C46.8349 81.4592 46.0469 81.6306 45.4509 81.2474C44.855 80.8642 44.6839 80.0759 45.067 79.48L52.2012 68.3333C52.4407 67.9609 52.8382 67.7542 53.2483 67.7452ZM34.052 70.1671C34.0802 70.1671 34.1085 70.1671 34.1369 70.1685C34.3428 70.1778 34.5495 70.2373 34.7392 70.3514C35.3462 70.7168 35.5409 71.4997 35.1755 72.1067L33.7963 74.3977C33.4309 75.0047 32.648 75.1994 32.041 74.834C31.434 74.4686 31.2397 73.6857 31.605 73.0787L32.9839 70.7877C33.2194 70.3965 33.6285 70.1765 34.052 70.1674L34.052 70.1671ZM56.558 71.9068L56.558 71.9072C56.7741 71.9128 56.9921 71.9737 57.1907 72.0945C57.796 72.4628 57.9868 73.2463 57.6186 73.8515L53.0687 81.5099C52.7004 82.1152 51.9166 82.306 51.3114 81.9377C50.7061 81.5695 50.5156 80.7856 50.8839 80.1804L55.4334 72.522C55.6636 72.1437 56.0559 71.9274 56.4656 71.9082C56.4964 71.9064 56.5271 71.9062 56.558 71.9068ZM59.5426 76.4645C59.666 76.4639 59.8762 76.4826 60.122 76.6126C60.7483 76.944 60.986 77.715 60.6547 78.3412L58.6464 81.9732C58.3151 82.5995 57.5441 82.8369 56.9178 82.5056C56.2916 82.1742 56.0542 81.4036 56.3855 80.7773L58.3934 77.1453C58.607 76.7417 59.0033 76.4993 59.4256 76.4669L59.4256 76.4665C59.4259 76.4722 59.4687 76.4649 59.5426 76.4645ZM36.3193 94.8444L36.3193 94.8447C32.9772 94.8447 30.2429 94.8631 30.2428 94.8856C30.2426 94.9082 30.407 95.251 30.608 95.6476C31.882 98.1618 31.8811 106.117 30.6067 107.607L30.1376 108.156L36.2307 108.196L42.3235 108.237L42.3512 106.026C42.3759 104.063 42.3582 103.875 42.1923 104.344C41.6754 105.807 40.5616 107.087 39.5198 107.415C37.7045 107.988 37.2928 107.866 36.6359 106.556C35.8756 105.04 35.4322 101.573 35.9987 101.573C36.8257 101.573 37.7081 102.234 38.1304 103.17L38.3848 103.734L39.305 101.843C40.3807 99.6328 40.3682 99.6814 39.7318 100.24C39.0463 100.842 38.3288 101.05 36.9095 101.059L35.6909 101.066L35.7166 99.6919C35.7445 98.1781 35.97 96.2503 36.1861 95.6821C36.7912 94.0905 41.0896 95.9904 41.455 98.011L41.6116 98.8785L42.0039 96.9839C42.2195 95.9416 42.3959 95.034 42.3959 94.9668C42.3959 94.8996 39.6614 94.8444 36.3193 94.8444ZM59.8406 96.2226L59.4016 96.6382C58.8164 97.1919 57.0111 98.1604 55.2941 98.8413L53.8986 99.3943L54.6404 99.3983C55.6568 99.4037 55.6675 99.4317 55.7426 102.296C55.8384 105.955 56.3648 107.366 57.9301 108.163C58.9034 108.658 60.5355 108.599 62.2902 108.004C63.747 107.51 63.8301 107.432 62.8973 107.432C61.5748 107.432 60.7152 106.484 60.168 104.421C59.8998 103.41 59.5657 99.9846 59.7009 99.6324C59.7632 99.4702 61.4109 99.6526 62.2287 99.9121C62.3634 99.9548 62.615 99.8061 62.8446 99.5485L63.2328 99.1129L61.4789 99.1129L59.7246 99.1129L59.7828 97.6677L59.8406 96.2226ZM49.202 98.408C47.2438 98.4432 45.1549 99.017 44.254 100.155C42.4859 102.387 43.3031 103.64 47.5333 105.18C49.7574 105.989 50.3962 106.395 50.6481 107.158C51.1559 108.697 48.2024 108.139 45.7008 106.224C44.9062 105.615 44.137 105.032 43.9915 104.928C43.7454 104.753 43.7158 104.813 43.5637 105.797C43.4739 106.378 43.3707 107.035 43.3348 107.256C43.2572 107.733 43.4523 107.848 44.8557 108.148C48.8804 109.011 53.3048 107.598 53.9592 105.241C54.3962 103.667 53.684 103.113 49.7891 101.994C46.3684 101.011 45.6913 100.529 46.1564 99.4058C46.5494 98.457 49.4937 98.8477 49.6863 99.8742C49.9334 101.192 50.0057 101.355 50.4834 101.676C51.7162 102.505 53.3954 101.738 53.4353 100.328C53.4724 99.0203 51.4213 98.3682 49.202 98.408ZM69.6831 98.6495C69.5484 98.6495 69.4146 98.6513 69.282 98.6556C65.3041 98.7862 62.3757 100.929 64.6729 102.286C66.5842 103.415 69.1318 101.115 67.7668 99.493C67.2901 98.9265 67.3197 98.903 68.2856 99.0791C70.6002 99.5009 70.8621 100.223 70.6903 105.71L70.6426 107.229L70.0095 107.355C68.7135 107.612 67.6989 106.672 67.6765 105.192C67.6608 104.151 67.9351 103.884 69.7382 103.18C70.5442 102.865 70.5957 102.825 70.0998 102.9C66.8225 103.398 66.0936 103.543 65.4508 103.819C63.1016 104.831 63.3739 107.793 65.8638 108.312C66.7565 108.499 68.0672 108.35 69.2319 107.93C70.7672 107.376 70.8155 107.372 71.0051 107.789C71.2275 108.277 71.7851 108.367 73.8958 108.256C74.3403 108.233 75.2038 108.203 76.1936 108.172C76.0173 108.029 75.8801 107.893 75.808 107.791C75.3516 107.323 75.0348 105.946 74.8705 103.666C74.5598 99.3532 74.0334 98.802 70.09 98.6576C69.9533 98.6527 69.8178 98.6498 69.6831 98.6495ZM18.1698 110.966L17.77 111.189C17.3149 111.444 15.935 111.771 14.7512 111.905C14.3098 111.955 13.6574 112.034 13.3016 112.081L12.6546 112.165L12.9857 112.548C14.6333 114.451 14.7911 121.816 13.2255 123.744L12.842 124.216L14.0643 124.173C14.7364 124.15 15.8281 124.19 16.4902 124.263C18.005 124.428 19.1575 124.455 19.7962 124.341L20.2927 124.252L19.8764 123.945C18.9625 123.269 18.3958 121.58 18.1319 118.745C17.951 116.801 17.9633 116.771 18.9152 116.767C20.8499 116.759 21.5065 118.062 21.5065 121.908L21.5065 124.25L22.0081 124.34C22.6447 124.454 26.3987 124.429 26.9003 124.308L27.278 124.216L26.8921 123.971C26.1183 123.479 25.563 121.883 25.1778 119.045C24.8787 116.842 24.6624 116.147 24.1148 115.627C22.8022 114.38 20.0856 114.541 18.6017 115.954L17.9845 116.542L18.0771 113.754L18.1698 110.966ZM64.4037 111.052C64.3067 111.05 64.1517 111.121 63.9211 111.207C63.1174 111.506 61.7493 111.802 60.634 111.917C59.181 112.066 59.1905 112.06 59.5633 112.654C60.3247 113.868 60.5671 115.878 60.5671 120.986L60.5671 124.267L61.2695 124.35C61.6558 124.395 62.1524 124.459 62.3731 124.493C63.0289 124.593 66.2136 124.431 66.4424 124.286C66.622 124.172 66.6137 124.151 66.3862 124.147C65.1116 124.124 64.2946 122.068 64.101 118.396C63.9835 116.169 64.8526 115.61 66.4921 116.857C67.9537 117.969 68.2793 122.254 67.0248 123.867C66.7183 124.261 66.7045 124.314 66.9281 124.243C67.0714 124.198 67.4586 124.085 67.7885 123.993C71.3523 122.995 72.9418 118.422 70.605 115.89C69.1727 114.337 66.1524 114.4 64.5471 116.015C64.3448 116.218 64.174 116.324 64.168 116.249C64.1246 115.712 64.226 114.118 64.3919 112.73C64.5496 111.41 64.617 111.055 64.4037 111.052ZM55.0015 113.699C53.8963 113.695 52.7141 114.195 51.6807 115.269C51.279 115.686 51.0749 115.815 51.0296 115.682C50.3442 113.655 46.4756 113.256 44.4992 115.008C43.7773 115.647 43.8051 115.66 43.8769 114.724L43.9378 113.933L43.3983 114.214C42.8283 114.512 41.2492 114.849 39.6912 115.005C39.1762 115.056 38.5843 115.134 38.3756 115.176L37.9958 115.254L38.4554 115.592C39.5217 116.376 41.4342 121.018 38.7595 124.226L42.0634 124.148C44.2703 124.096 46.0244 124.125 45.9606 124.068C45.8968 124.01 45.6183 123.784 45.3413 123.564C43.4874 122.096 42.9901 116.094 44.7224 116.094C46.8136 116.094 47.392 117.203 47.4815 121.38L47.5407 124.133L50.3992 124.176L53.2577 124.218L52.743 123.661C52.1408 123.01 51.9675 122.451 51.7893 120.579C51.6663 119.289 51.4409 117.103 51.3638 116.455C51.3332 116.199 51.4183 116.161 52.12 116.122C54.2755 116.002 55.0353 117.497 55.0002 121.79L54.9809 124.124L55.563 124.211C56.3891 124.334 58.7886 124.777 60.4754 124.207C58.5153 122.805 59.2736 119.845 58.8425 117.568C58.4719 115.106 56.8436 113.705 55.0015 113.699L55.0015 113.699ZM80.2771 114.664C79.4513 114.674 78.5491 115.019 77.7761 115.753C77.1672 116.331 77.121 116.308 77.1751 115.452C77.2204 114.735 77.2143 114.721 76.8873 114.802C76.3915 114.924 73.7394 115.305 72.7368 115.398L71.8639 115.478L72.4206 116.107C73.8471 117.717 73.8087 122.299 72.3563 123.773C72.126 124.007 71.9376 124.259 71.9376 124.334C71.9376 124.415 72.4078 124.432 73.1081 124.377C73.7519 124.326 75.4374 124.245 76.8538 124.196L79.4289 124.106L78.9273 123.753C77.2067 122.543 76.1749 116.95 77.5579 116.33C78.1666 116.057 78.4451 116.396 78.5188 117.497C78.7305 120.663 82.8177 120.316 82.8177 117.132C82.8177 115.556 81.6534 114.647 80.2771 114.664ZM32.6599 114.745C32.5353 114.745 32.4118 114.747 32.2892 114.751C31.1559 114.791 30.1153 115.023 29.2792 115.363C28.3008 115.813 27.5814 116.409 27.3274 116.99C27.1808 117.474 27.3761 117.964 28.0278 118.381C29.7949 119.51 32.1504 117.21 30.8884 115.588C30.4477 115.021 30.4753 114.998 31.3683 115.174C34.311 115.681 33.6432 119.438 33.5913 121.805L33.5474 123.324L32.9619 123.45C31.7638 123.707 30.8255 122.767 30.8049 121.287C30.7903 120.247 31.0439 119.979 32.711 119.275C33.4562 118.96 33.504 118.92 33.0455 118.996C31.802 119.2 30.9684 119.343 30.3611 119.462C29.108 119.828 28.1595 120.348 27.5882 120.936C26.8199 122.223 27.3866 124.014 29.1287 124.407C29.9541 124.594 31.1661 124.445 32.2429 124.025C32.9909 123.733 33.3554 123.595 33.5602 123.59L33.5995 123.573L33.6137 123.591C33.7563 123.607 33.8081 123.707 33.8825 123.883C34.0882 124.372 34.6032 124.462 36.5547 124.352C36.9656 124.328 37.7646 124.298 38.6797 124.268C38.5166 124.124 38.3895 123.989 38.3229 123.886C37.9009 123.418 37.6083 122.041 37.4564 119.761C37.277 117.067 37.0193 115.841 35.9632 115.265C35.9608 115.264 35.9582 115.263 35.9558 115.261C35.3211 114.918 34.4 114.807 33.0363 114.753C32.91 114.748 32.7845 114.745 32.6599 114.745L32.6599 114.745ZM89.5284 114.829C82.5696 114.811 80.1564 122.703 86.6523 124.235C88.716 124.722 91.4401 123.979 93.1726 122.458C93.5415 122.134 93.5415 122.134 92.672 122.428C89.3257 123.562 86.7097 121.739 86.7247 118.284C86.7372 115.384 88.353 114.12 89.3488 116.231C90.1229 117.872 89.5694 119.699 88.0494 120.52C87.4059 120.867 87.5916 120.888 89.3698 120.667C95.015 119.968 95.1542 114.845 89.5284 114.829ZM76.0309 126.944L75.4776 127.481C74.8427 128.097 72.6968 129.229 70.7982 129.948L69.4958 130.442L70.4363 130.514L71.3768 130.586L71.4712 133.336C71.6206 137.686 72.241 139.318 74.0534 140.131C74.8785 140.5 77.3002 140.362 78.7558 139.863C80.0485 139.419 80.4575 139.161 79.6633 139.289C77.5102 139.639 76.131 137.097 75.8814 132.318C75.7817 130.409 75.7108 130.475 77.5085 130.821C78.3314 130.98 79.0143 131.089 79.0257 131.065C79.0372 131.041 79.195 130.808 79.3768 130.549L79.7076 130.077L77.8572 130.115L76.0069 130.153L76.0187 128.548L76.0309 126.944ZM64.3029 130.42C64.1681 130.42 64.0344 130.422 63.9018 130.427C59.9239 130.557 56.9955 132.7 59.2927 134.057C61.204 135.186 63.7519 132.886 62.387 131.264C61.9103 130.697 61.9399 130.674 62.9058 130.85C65.2203 131.272 65.4822 131.994 65.3104 137.481L65.2627 139L64.6293 139.126C63.3333 139.383 62.319 138.443 62.2967 136.963C62.2809 135.923 62.5549 135.655 64.358 134.951C65.164 134.636 65.2159 134.596 64.7199 134.672C61.4426 135.17 60.7134 135.314 60.0706 135.591C57.7214 136.602 57.994 139.564 60.4839 140.084C61.3767 140.27 62.6873 140.121 63.8521 139.701C65.3873 139.147 65.4356 139.143 65.6253 139.559C65.8477 140.047 66.4052 140.138 68.516 140.027C68.9604 140.004 69.8239 139.974 70.8137 139.944C70.6372 139.8 70.5 139.664 70.4282 139.561C69.9718 139.093 69.655 137.718 69.4907 135.437C69.18 131.124 68.6536 130.573 64.7101 130.428C64.5735 130.423 64.4376 130.421 64.3029 130.42ZM86.884 130.442L86.8839 130.442C86.7492 130.442 86.6154 130.444 86.4828 130.448C82.505 130.579 79.5769 132.721 81.8741 134.078C83.7854 135.207 86.333 132.907 84.968 131.285C84.4913 130.719 84.5206 130.695 85.4865 130.871C87.801 131.293 88.0633 132.015 87.8915 137.502L87.8438 139.021L87.2107 139.147C85.9148 139.404 84.8997 138.464 84.8774 136.984C84.8616 135.944 85.1363 135.676 86.9394 134.972C87.7454 134.657 87.797 134.618 87.301 134.693C84.0237 135.191 83.2945 135.335 82.6516 135.612C80.3025 136.623 80.5748 139.585 83.0646 140.105C83.9574 140.291 85.2681 140.142 86.4328 139.722C87.968 139.168 88.0167 139.164 88.2063 139.581C88.4288 140.069 88.9859 140.159 91.0967 140.049C91.5411 140.026 92.4047 139.995 93.3944 139.965C93.2177 139.821 93.0805 139.685 93.0089 139.582C92.5525 139.114 92.2357 137.739 92.0714 135.458C91.7607 131.145 91.2346 130.594 87.2912 130.449C87.1545 130.444 87.0187 130.442 86.884 130.442ZM21.2965 130.447C15.1925 130.389 11.1398 133.973 13.1944 138.148C14.3079 140.411 17.9708 140.961 20.2663 139.21C20.9271 138.706 20.9272 140.771 20.2663 143.319C20.0753 144.055 20.075 144.056 20.451 143.95C20.6578 143.892 21.9119 143.855 23.2378 143.867L25.6486 143.891L25.4592 143.434C24.8044 141.853 24.803 134.183 25.4568 130.984C25.5398 130.578 25.5291 130.569 25.0655 130.663C24.8034 130.716 23.9875 130.68 23.2524 130.585C22.5815 130.497 21.928 130.453 21.2965 130.447ZM47.7155 130.627C39.8887 130.63 37.4325 139.251 45.2067 140.267C46.9167 140.49 48.396 140.212 50.0999 139.348C51.3479 138.716 52.4095 137.993 51.7899 138.198C48.626 139.245 46.0358 138.473 45.0501 136.191C43.933 133.604 45.2539 130.122 46.8998 131.314C48.6293 132.567 48.0768 135.739 46.0025 136.466L45.4235 136.669L46.3641 136.673C53.0099 136.7 54.6811 130.86 48.0923 130.634C47.9654 130.629 47.8398 130.627 47.7155 130.627ZM31.1471 130.794C31.1125 130.797 31.0726 130.804 31.0274 130.813C30.8284 130.852 29.917 130.92 29.0019 130.966C26.2288 131.103 25.7138 131.177 26.12 131.38C27.0292 131.833 27.3615 132.838 27.5621 135.741C27.784 138.953 28.1873 139.759 29.7781 140.171C31.3303 140.572 33.5124 140.075 34.63 139.065C34.9606 138.767 35.2481 138.548 35.2688 138.579C35.2896 138.61 35.4361 138.961 35.5946 139.359C35.9435 140.235 36.2588 140.294 39.0216 140.002C40.8932 139.804 40.8761 139.811 40.3558 139.402C39.3766 138.632 38.8478 136.609 38.7554 133.282C38.7041 131.434 38.6435 130.837 38.5109 130.883C38.4139 130.916 37.1948 130.99 35.8022 131.047C32.8418 131.168 33.0221 131.139 33.5186 131.409C34.205 131.781 34.6176 132.7 34.7849 134.227C35.2707 138.661 35.3187 138.274 34.284 138.274C32.0843 138.274 31.3893 137.031 31.3893 133.098C31.3893 131.037 31.3894 130.78 31.1471 130.794ZM18.5232 130.891C19.7126 130.848 21.0009 133.612 20.871 137.261L20.8271 138.491L19.8804 138.533C17.5523 138.636 16.2327 135.728 17.1839 132.591C17.5367 131.428 18.021 130.91 18.5232 130.891Z"
       fill="#062E32"
       id="path1"
       style="fill:#ffffff;fill-opacity:1" />
  </g>
  <defs
     id="defs1">
    <clipPath
       id="clip0_55_53">
      <rect
         width="106.423"
         height="144"
         fill="white"
         id="rect1" />
    </clipPath>
  </defs>
</svg>
